<?xml version="1.0" encoding="utf-8"?>
<!-- Generator: Adobe Illustrator 22.0.0, SVG Export Plug-In . SVG Version: 6.00 Build 0)  -->
<svg version="1.1" xmlns="http://www.w3.org/2000/svg" xmlns:xlink="http://www.w3.org/1999/xlink" x="0px" y="0px"
	 viewBox="0 0 500 500" style="enable-background:new 0 0 500 500;" xml:space="preserve">
<style type="text/css">
	.st0{fill:#F0BF0A;}
	.st1{fill:#008A2E;}
</style>
<g id="Layer_2">
	<rect x="0" class="st0" width="500" height="500"/>
</g>
<g id="svg2" inkscape:label="Pozadí" inkscape:output_extension="org.inkscape.output.svg.inkscape" inkscape:version="0.45.1" sodipodi:docbase="M:\Pracovní data\Projekty\Aktivní\Vektorové převody\Wikimedia Commons" sodipodi:docname="Africa stub icon.svg" sodipodi:version="0.32" xmlns:cc="http://web.resource.org/cc/" xmlns:dc="http://purl.org/dc/elements/1.1/" xmlns:inkscape="http://www.inkscape.org/namespaces/inkscape" xmlns:rdf="http://www.w3.org/1999/02/22-rdf-syntax-ns#" xmlns:sodipodi="http://sodipodi.sourceforge.net/DTD/sodipodi-0.dtd" xmlns:svg="http://www.w3.org/2000/svg">
	
		<sodipodi:namedview  bordercolor="#666666" borderopacity="1.0" id="base" inkscape:current-layer="layer1" inkscape:cx="-233.90074" inkscape:cy="227.38679" inkscape:document-units="px" inkscape:pageopacity="0.0" inkscape:pageshadow="2" inkscape:window-height="998" inkscape:window-width="1244" inkscape:window-x="32" inkscape:window-y="-4" inkscape:zoom="0.72973034" pagecolor="#ffffff">
		</sodipodi:namedview>
	<g id="layer1" transform="translate(-150.56899,-160.34067)" inkscape:groupmode="layer" inkscape:label="Vrstva 1">
		<path id="path2393" class="st1" d="M375.8,576.6c-8.1-31.9-11.9-65.5-8.4-74.6c3.5-9.1-3.5-40-15.5-68.8
			c-17.8-42.7-27-50.6-50.2-43.3c-37.8,12-82.2-29.3-81.6-75.8c0.9-68.3,111.2-157.4,139-112.4c9.7,15.7,28.4,20.5,100.8,25.7
			c13.4,1,24.4,12.7,24.5,26.2c0.1,35.3,45.6,97.8,66.1,90.7c26.2-9,20.9,22.2-10.4,62.1c-15.3,19.5-28.4,51.8-29,71.8
			c-1.7,54.9-57,147.2-91.1,152.1C395.9,633.9,387.9,624.1,375.8,576.6z M521.7,567.3c-3.5-5.9-0.8-25.2,5.9-42.9
			c14.6-38.6,40.8-28.6,30.3,11.6C549.6,567.5,531.2,583.4,521.7,567.3z"/>
	</g>
</g>
</svg>
