<?xml version="1.0" encoding="UTF-8"?>
<svg version="1.1" xmlns="http://www.w3.org/2000/svg" width="500" height="500">
<path d="M0 0 C0.97998459 -0.00979385 1.95996918 -0.01958771 2.96965027 -0.02967834 C23.78821243 -0.1949287 44.15149806 -0.34503933 64.5703125 4.23828125 C65.5612793 4.45790527 66.55224609 4.6775293 67.57324219 4.90380859 C101.84583463 12.73232025 134.56031234 26.8370999 162.5703125 48.23828125 C163.13234375 48.65899902 163.694375 49.0797168 164.2734375 49.51318359 C173.98383264 56.7877786 182.83676735 64.82740403 191.5703125 73.23828125 C192.364375 73.99109375 193.1584375 74.74390625 193.9765625 75.51953125 C198.81487804 80.20424947 203.08740751 85.28266325 207.25292969 90.5703125 C208.17780326 91.74131625 209.10868389 92.90758855 210.04394531 94.0703125 C222.70103873 109.83048621 233.12269015 126.8748433 241.5703125 145.23828125 C241.89451172 145.93646973 242.21871094 146.6346582 242.55273438 147.35400391 C255.20884142 174.95443228 263.56939022 205.6677806 263.80859375 236.140625 C263.81834229 237.16796249 263.82809082 238.19529999 263.83813477 239.25376892 C264.15580194 281.35916346 264.15580194 281.35916346 259.5703125 301.23828125 C259.28148193 302.56714355 259.28148193 302.56714355 258.98681641 303.92285156 C257.7089148 309.75401161 256.23479762 315.50586766 254.5703125 321.23828125 C254.35681152 321.97385254 254.14331055 322.70942383 253.92333984 323.46728516 C239.86211305 370.71258712 209.8684552 416.13083321 170.5703125 446.23828125 C169.393081 447.16778112 168.2160078 448.09748152 167.0390625 449.02734375 C138.97583136 470.91230206 105.40624166 486.83139055 70.7578125 494.92578125 C69.55257935 495.21134888 69.55257935 495.21134888 68.32299805 495.50268555 C50.22906897 499.51869362 32.37890403 500.78330239 13.8828125 500.67578125 C12.7866864 500.6730722 11.6905603 500.67036316 10.56121826 500.66757202 C-5.77249339 500.6063954 -21.45322063 499.90062071 -37.4296875 496.23828125 C-38.28900879 496.0563623 -39.14833008 495.87444336 -40.03369141 495.68701172 C-81.90543782 486.79115369 -122.25320939 466.68934359 -153.4296875 437.23828125 C-154.73763321 436.10798958 -156.05004998 434.98284814 -157.3671875 433.86328125 C-166.27981987 426.06472793 -174.1420998 417.56124657 -181.4296875 408.23828125 C-182.43868307 406.98167526 -183.44780572 405.72517131 -184.45703125 404.46875 C-196.48657444 389.31192373 -206.34572688 372.81119146 -214.4296875 355.23828125 C-214.91598633 354.19099854 -214.91598633 354.19099854 -215.41210938 353.12255859 C-224.54344354 333.20895216 -231.12382022 311.90766992 -234.4296875 290.23828125 C-234.60483887 289.14136963 -234.77999023 288.04445801 -234.96044922 286.91430664 C-236.68442639 274.93028155 -236.82800791 263.01835677 -236.8046875 250.92578125 C-236.80414368 249.86513458 -236.80359985 248.80448792 -236.80303955 247.71170044 C-236.76424206 231.24154407 -236.058034 215.36698966 -232.4296875 199.23828125 C-232.20474609 198.2313623 -231.97980469 197.22444336 -231.74804688 196.18701172 C-227.51366986 177.80596603 -221.37618483 160.32515565 -213.4296875 143.23828125 C-213.13368652 142.59568359 -212.83768555 141.95308594 -212.53271484 141.29101562 C-202.44838453 119.60779864 -188.70866238 99.71842321 -172.4296875 82.23828125 C-171.25827296 80.88821961 -170.0913933 79.53420611 -168.9296875 78.17578125 C-161.77228993 70.00058861 -153.9369088 62.97776825 -145.4296875 56.23828125 C-144.32232106 55.34057796 -143.21557171 54.44211304 -142.109375 53.54296875 C-134.22301668 47.17933988 -126.09651501 41.48613023 -117.4296875 36.23828125 C-115.81900391 35.25601563 -115.81900391 35.25601563 -114.17578125 34.25390625 C-80.06272402 14.11632819 -39.88604277 0.32932928 0 0 Z " fill="#FCD115" transform="translate(236.4296875,-0.23828125)"/>
<path d="M0 0 C155.76 0 311.52 0 472 0 C471.27423646 4.35458124 470.72415951 7.11259593 469.06640625 10.984375 C468.67001953 11.91056641 468.27363281 12.83675781 467.86523438 13.79101562 C467.43533203 14.76748047 467.00542969 15.74394531 466.5625 16.75 C465.89250977 18.27657227 465.89250977 18.27657227 465.20898438 19.83398438 C449.31417755 55.43567652 424.04848096 89.21285733 393 113 C391.8227685 113.92949987 390.6456953 114.85920027 389.46875 115.7890625 C361.40551886 137.67402081 327.83592916 153.5931093 293.1875 161.6875 C292.38401123 161.87787842 291.58052246 162.06825684 290.75268555 162.2644043 C272.65875647 166.28041237 254.80859153 167.54502114 236.3125 167.4375 C235.2163739 167.43479095 234.1202478 167.43208191 232.99090576 167.42929077 C216.65719411 167.36811415 200.97646687 166.66233946 185 163 C183.71101807 162.72712158 183.71101807 162.72712158 182.39599609 162.44873047 C140.52424968 153.55287244 100.17647811 133.45106234 69 104 C67.69205429 102.86970833 66.37963752 101.74456689 65.0625 100.625 C56.14986763 92.82644668 48.2875877 84.32296532 41 75 C39.99100443 73.74339401 38.98188178 72.48689006 37.97265625 71.23046875 C23.53257265 53.03644135 12.59753995 32.99500222 3.5 11.6875 C3.14905273 10.86822021 2.79810547 10.04894043 2.43652344 9.20483398 C2.1171582 8.43985596 1.79779297 7.67487793 1.46875 6.88671875 C1.18451172 6.20826904 0.90027344 5.52981934 0.60742188 4.83081055 C0 3 0 3 0 0 Z " fill="#3A75C3" transform="translate(14,333)"/>
<path d="M0 0 C0.97998459 -0.00979385 1.95996918 -0.01958771 2.96965027 -0.02967834 C23.78821243 -0.1949287 44.15149806 -0.34503933 64.5703125 4.23828125 C65.5612793 4.45790527 66.55224609 4.6775293 67.57324219 4.90380859 C101.84583463 12.73232025 134.56031234 26.8370999 162.5703125 48.23828125 C163.13234375 48.65899902 163.694375 49.0797168 164.2734375 49.51318359 C173.98383264 56.7877786 182.83676735 64.82740403 191.5703125 73.23828125 C192.364375 73.99109375 193.1584375 74.74390625 193.9765625 75.51953125 C198.81487804 80.20424947 203.08740751 85.28266325 207.25292969 90.5703125 C208.17780326 91.74131625 209.10868389 92.90758855 210.04394531 94.0703125 C225.13965442 112.86696589 236.62496764 133.42867927 246.0703125 155.55078125 C246.5967334 156.77970093 246.5967334 156.77970093 247.13378906 158.03344727 C247.4531543 158.79842529 247.77251953 159.56340332 248.1015625 160.3515625 C248.38580078 161.03001221 248.67003906 161.70846191 248.96289062 162.4074707 C249.5703125 164.23828125 249.5703125 164.23828125 249.5703125 167.23828125 C93.8103125 167.23828125 -61.9496875 167.23828125 -222.4296875 167.23828125 C-221.30376951 160.48277329 -221.30376951 160.48277329 -219.86328125 157.27734375 C-219.54713867 156.56715088 -219.23099609 155.85695801 -218.90527344 155.12524414 C-218.56270508 154.37879639 -218.22013672 153.63234863 -217.8671875 152.86328125 C-217.32819824 151.67690063 -217.32819824 151.67690063 -216.77832031 150.46655273 C-215.67315604 148.05184119 -214.55374215 145.64424931 -213.4296875 143.23828125 C-213.11080566 142.54847168 -212.79192383 141.85866211 -212.46337891 141.14794922 C-202.38906498 119.51890494 -188.67238671 99.67947089 -172.4296875 82.23828125 C-171.25827296 80.88821961 -170.0913933 79.53420611 -168.9296875 78.17578125 C-161.77228993 70.00058861 -153.9369088 62.97776825 -145.4296875 56.23828125 C-144.32232106 55.34057796 -143.21557171 54.44211304 -142.109375 53.54296875 C-134.22301668 47.17933988 -126.09651501 41.48613023 -117.4296875 36.23828125 C-115.81900391 35.25601563 -115.81900391 35.25601563 -114.17578125 34.25390625 C-80.06272402 14.11632819 -39.88604277 0.32932928 0 0 Z " fill="#009E5F" transform="translate(236.4296875,-0.23828125)"/>
</svg>
